HIERARCHY
ROOT hip
{
	OFFSET 0.000000 0.000000 0.000000
	CHANNELS 6 Xposition Yposition Zposition Xrotation Zrotation Yrotation 
	JOINT abdomen
	{
		OFFSET 0.000000 3.422050 0.000000
		CHANNELS 3 Xrotation Zrotation Yrotation 
		JOINT chest
		{
			OFFSET 0.000000 8.486693 -0.684411
			CHANNELS 3 Xrotation Zrotation Yrotation 
			JOINT neck
			{
				OFFSET 0.000000 10.266162 -0.273764
				CHANNELS 3 Xrotation Zrotation Yrotation 
				JOINT head
				{
					OFFSET 0.000000 3.148285 0.000000
					CHANNELS 3 Xrotation Zrotation Yrotation 
					End Site
					{
						OFFSET 0.000000 3.148289 0.000000
					}
				}
			}
			JOINT lCollar
			{
				OFFSET 3.422053 6.707223 -0.821293
				CHANNELS 3 Yrotation Zrotation Xrotation 
				JOINT lShldr
				{
					OFFSET 3.285171 0.000000 0.000000
					CHANNELS 3 Zrotation Yrotation Xrotation 
					JOINT lForeArm
					{
						OFFSET 10.129278 0.000000 0.000000
						CHANNELS 3 Yrotation Zrotation Xrotation 
						JOINT lHand
						{
							OFFSET 8.486692 0.000000 0.000000
							CHANNELS 3 Zrotation Yrotation Xrotation 
							End Site
							{
								OFFSET 4.106464 0.000000 0.000000
							}
						}
					}
				}
			}
			JOINT rCollar
			{
				OFFSET -3.558935 6.707223 -0.821293
				CHANNELS 3 Yrotation Zrotation Xrotation 
				JOINT rShldr
				{
					OFFSET -3.148289 0.000000 0.000000
					CHANNELS 3 Zrotation Yrotation Xrotation 
					JOINT rForeArm
					{
						OFFSET -10.266159 0.000000 0.000000
						CHANNELS 3 Yrotation Zrotation Xrotation 
						JOINT rHand
						{
							OFFSET -8.349810 0.000000 0.000000
							CHANNELS 3 Zrotation Yrotation Xrotation 
							End Site
							{
								OFFSET -4.106464 0.000000 0.000000
							}
						}
					}
				}
			}
		}
	}
	JOINT lThigh
	{
		OFFSET 5.338403 -1.642589 1.368821
		CHANNELS 3 Xrotation Zrotation Yrotation 
		JOINT lShin
		{
			OFFSET -2.053232 -20.121670 0.000000
			CHANNELS 3 Xrotation Zrotation Yrotation 
			JOINT lFoot
			{
				OFFSET 0.000000 -19.300380 -1.231939
				CHANNELS 3 Xrotation Yrotation Zrotation 
				End Site
				{
					OFFSET 0.000000 -2.463878 4.653993
				}
			}
		}
	}
	JOINT rThigh
	{
		OFFSET -5.338403 -1.642589 1.368821
		CHANNELS 3 Xrotation Zrotation Yrotation 
		JOINT rShin
		{
			OFFSET 2.053232 -20.121670 0.000000
			CHANNELS 3 Xrotation Zrotation Yrotation 
			JOINT rFoot
			{
				OFFSET 0.000000 -19.300380 -1.231939
				CHANNELS 3 Xrotation Yrotation Zrotation 
				End Site
				{
					OFFSET 0.000000 -2.463878 4.653993
				}
			}
		}
	}
}
MOTION
Frames: 10
Frame Time: 0.022176
0.000000 6.487295 0.952190 -91.353699 0.000000 0.000000 2.023825 -0.020793 -0.021362 -7.809061 -0.149323 -0.724162 39.997601 0.000000 0.000000 -23.718521 8.599765 5.874497 1.357315 -18.882656 13.647434 -55.316116 -31.964159 -9.354194 2.379162 -11.932797 34.708008 -49.474483 6.141086 -59.383648 -0.586426 20.441294 13.239395 54.114803 31.529949 -9.938593 -2.294712 11.368796 34.669369 50.004124 -6.605295 -58.869598 -22.681057 23.432213 38.135998 66.777435 32.809387 3.553659 19.111261 7.706916 -6.626114 -22.677086 -23.451437 -38.149891 66.795052 -32.838066 -3.547834 19.097815 -7.722455 6.622150 
0.000000 6.443140 0.952190 -91.704102 0.000000 0.000000 2.575515 -0.020779 -0.021375 -7.809061 -0.149323 -0.724162 39.997601 0.000000 0.000000 -23.557802 8.550278 5.858205 1.070009 -19.176338 13.243435 -55.041050 -31.888514 -9.500572 2.359353 -11.703852 34.700680 -49.671021 6.102111 -59.453354 -0.253462 20.792402 12.805860 53.788918 31.433115 -10.110178 -2.270627 11.115562 34.661877 50.227615 -6.590209 -58.916981 -22.389284 23.471634 38.201004 66.777435 32.809387 3.553659 19.127405 7.672909 -6.528883 -22.385263 -23.490784 -38.215168 66.795052 -32.838066 -3.547834 19.113928 -7.688478 6.524662 
0.000000 6.398985 0.952190 -92.054497 0.000000 0.000000 3.127153 -0.020765 -0.021388 -7.809061 -0.149323 -0.724162 39.997601 0.000000 0.000000 -23.397018 8.500813 5.841766 0.780021 -19.468069 12.837187 -54.766453 -31.812279 -9.646402 2.339588 -11.474906 34.693424 -49.867496 6.062896 -59.522934 0.083086 21.141100 12.369170 53.463726 31.335457 -10.280931 -2.246596 10.862329 34.654499 50.451077 -6.574934 -58.964287 -22.097393 23.510754 38.266243 66.777435 32.809387 3.553659 19.143610 7.638931 -6.431651 -22.093321 -23.529821 -38.280670 66.795052 -32.838066 -3.547834 19.130100 -7.654531 6.427173 
0.000000 6.354829 0.952190 -92.404884 0.000000 0.000000 3.678716 -0.020751 -0.021401 -7.809061 -0.149323 -0.724162 39.997601 0.000000 0.000000 -23.236174 8.451372 5.825183 0.487352 -19.757814 12.428688 -54.492298 -31.735451 -9.791677 2.319870 -11.245962 34.686260 -50.063904 6.023444 -59.592361 0.423229 21.487324 11.929312 53.139221 31.236977 -10.450850 -2.222618 10.609100 34.647228 50.674500 -6.559477 -59.011509 -21.805370 23.549562 38.331703 66.777435 32.809387 3.553659 19.159868 7.604977 -6.334416 -21.801245 -23.568552 -38.346413 66.795052 -32.838066 -3.547834 19.146328 -7.620612 6.329681 
0.000000 6.310674 0.952190 -92.755249 0.000000 0.000000 4.230175 -0.020736 -0.021414 -7.809061 -0.149323 -0.724162 39.997601 0.000000 0.000000 -23.075264 8.401957 5.808455 0.192004 -20.045534 12.017937 -54.218628 -31.658037 -9.936395 2.300197 -11.017024 34.679184 -50.260242 5.983763 -59.661648 0.766970 21.831041 11.486289 52.815418 31.137682 -10.619926 -2.198694 10.355878 34.640076 50.897915 -6.543838 -59.058701 -21.513229 23.588068 38.397419 66.777435 32.809387 3.553659 19.176186 7.571053 -6.237181 -21.509052 -23.606966 -38.412373 66.795052 -32.838066 -3.547834 19.162617 -7.586720 6.232190 
0.000000 6.266519 0.952190 -93.105560 0.000000 0.000000 4.781506 -0.020722 -0.021427 -7.809061 -0.149323 -0.724162 39.997601 0.000000 0.000000 -22.914288 8.352565 5.791579 -0.106022 -20.331202 11.604936 -53.945427 -31.580040 -10.080545 2.280570 -10.788095 34.672195 -50.456516 5.943842 -59.730789 1.114318 22.172178 11.040079 52.492329 31.037586 -10.788158 -2.174823 10.102664 34.633038 51.121292 -6.528018 -59.105801 -21.220972 23.626259 38.463345 66.777435 32.809387 3.553659 19.192553 7.537154 -6.139943 -21.216742 -23.645079 -38.478580 66.795052 -32.838066 -3.547834 19.178959 -7.552855 6.134696 
0.000000 6.222363 0.952190 -93.455841 0.000000 0.000000 5.332685 -0.020707 -0.021439 -7.809061 -0.149323 -0.724162 39.997601 0.000000 0.000000 -22.753258 8.303204 5.774561 -0.406723 -20.614767 11.189680 -53.672703 -31.501465 -10.224131 2.260986 -10.559175 34.665295 -50.652714 5.903686 -59.799782 1.465276 22.510695 10.590688 52.169922 30.936670 -10.955535 -2.151004 9.849466 34.626122 51.344635 -6.512017 -59.152847 -20.928602 23.664141 38.529507 66.777435 32.809387 3.553659 19.208981 7.503285 -6.042705 -20.924326 -23.682880 -38.545013 66.795052 -32.838066 -3.547834 19.195358 -7.519019 6.037202 
0.000000 6.178208 0.952190 -93.806084 0.000000 0.000000 5.883685 -0.020692 -0.021452 -7.809061 -0.149323 -0.724162 39.997601 0.000000 0.000000 -22.592165 8.253867 5.757397 -0.710095 -20.896202 10.772178 -53.400444 -31.422310 -10.367143 2.241445 -10.330261 34.658463 -50.848835 5.863300 -59.868629 1.819845 22.846523 10.138097 51.848255 30.834970 -11.122057 -2.127234 9.596281 34.619308 51.567947 -6.495833 -59.199810 -20.636122 23.701708 38.595890 66.777435 32.809387 3.553659 19.225466 7.469445 -5.945466 -20.631792 -23.720362 -38.611660 66.795052 -32.838066 -3.547834 19.211817 -7.485211 5.939707 
0.000000 6.134053 0.952190 -94.156273 0.000000 0.000000 6.434481 -0.020677 -0.021464 -7.809061 -0.149323 -0.724162 39.997601 0.000000 0.000000 -22.431007 8.204559 5.740088 -1.016134 -21.175472 10.352427 -53.128677 -31.342585 -10.509584 2.221948 -10.101361 34.651730 -51.044895 5.822686 -59.937336 2.178031 23.179626 9.682311 51.527302 30.732489 -11.287724 -2.103515 9.343110 34.612606 51.791233 -6.479471 -59.246727 -20.343544 23.738964 38.662498 66.777435 32.809387 3.553659 19.242008 7.435632 -5.848226 -20.339155 -23.757524 -38.678524 66.795052 -32.838066 -3.547834 19.228327 -7.451430 5.842210 
0.000000 6.089898 0.952190 -94.506386 0.000000 0.000000 6.985047 -0.020662 -0.021476 -7.809061 -0.149323 -0.724162 39.997601 0.000000 0.000000 -22.269794 8.155279 5.722633 -1.324834 -21.452534 9.930431 -52.857388 -31.262289 -10.651453 2.202494 -9.872479 34.645081 -51.240875 5.781834 -60.005882 2.539831 23.509939 9.223327 51.207073 30.629211 -11.452520 -2.079844 9.089963 34.606018 52.014473 -6.462925 -59.293556 -20.050859 23.775900 38.729313 66.777435 32.809387 3.553659 19.258604 7.401847 -5.750985 -20.046421 -23.794376 -38.745617 66.795052 -32.838066 -3.547834 19.244898 -7.417679 5.744714 
